{"glyphs":{":":{"x_min":0,"x_max":276,"ha":276,"o":"m 138 621 q 188 621 218 587 q 247 554 247 496 q 247 433 217 396 q 187 359 135 359 q 88 359 58 396 q 29 433 29 493 q 29 553 58 587 q 87 621 138 621 z m 139 249 q 188 249 218 215 q 247 181 247 124 q 247 62 217 25 q 187 -11 135 -11 q 88 -11 58 26 q 29 62 29 123 q 29 182 59 215 q 88 249 139 249 z"},"$":{"x_min":0,"x_max":517,"ha":517,"o":"m 521 758 l 335 429 q 417 390 449 337 q 482 283 482 208 q 482 105 428 47 q 374 -12 280 -12 q 197 -12 115 42 l 84 -11 l -3 -11 l 183 318 q 83 375 59 424 q 34 473 34 539 q 34 639 90 698 q 145 758 237 758 q 275 758 322 741 q 368 724 398 698 l 432 758 z m 271 473 l 329 577 q 309 603 284 603 q 265 603 251 584 q 238 566 238 538 q 238 501 271 473 z m 249 279 l 187 170 q 211 141 235 141 q 253 141 268 162 q 282 183 282 211 q 282 250 249 279 z"},"?":{"x_min":0,"x_max":390,"ha":390,"o":"m 216 223 q 272 192 272 107 q 272 56 248 22 q 224 -11 188 -11 q 154 -11 130 23 q 106 58 106 108 q 106 138 114 162 q 121 185 141 219 q 171 271 181 299 q 191 328 191 365 q 191 426 167 463 q 142 499 102 499 q 64 499 4 453 q 20 564 76 661 q 132 758 212 758 q 270 758 311 696 q 353 634 353 545 q 353 445 309 362 q 264 278 216 223 z"},"<":{"x_min":0,"x_max":453,"ha":453,"o":"m 417 208 l 417 36 l 36 266 l 36 410 l 417 641 l 417 471 l 184 339 z"},"'":{"x_min":0,"x_max":192,"ha":192,"o":"m 28 597 l 28 716 l 163 716 l 163 597 l 142 453 l 50 453 z"},"=":{"x_min":0,"x_max":453,"ha":453,"o":"m 36 380 l 36 538 l 417 538 l 417 380 z m 36 140 l 36 298 l 417 298 l 417 140 z"},"a":{"x_min":0,"x_max":481,"ha":481,"o":"m 239 0 l 239 44 q 220 22 192 9 q 165 -4 141 -4 q 93 -4 63 39 q 32 82 32 150 q 32 228 71 274 q 109 320 174 320 q 202 320 238 306 q 236 391 161 391 q 99 391 42 345 l 42 522 q 123 592 241 592 q 302 592 344 570 q 385 549 408 507 q 431 465 438 421 q 445 377 445 288 l 445 0 z m 239 130 l 239 212 q 221 221 206 221 q 187 221 175 207 q 163 193 163 172 q 163 146 175 130 q 187 114 206 114 q 227 114 239 130 z"},"L":{"x_min":0,"x_max":476,"ha":476,"o":"m 471 0 l 50 0 l 50 745 l 274 745 l 274 187 l 471 187 z"},"3":{"x_min":0,"x_max":581,"ha":581,"o":"m 114 314 l 114 446 q 152 432 188 432 q 229 432 251 454 q 274 477 274 517 q 274 548 257 568 q 239 588 212 588 q 183 588 156 567 q 130 546 114 508 l 114 745 l 292 745 q 405 745 451 693 q 496 641 496 551 q 496 491 476 452 q 455 413 411 383 q 500 334 500 201 q 500 130 473 81 q 446 32 402 16 q 358 0 266 0 l 114 0 l 114 259 q 155 182 216 182 q 245 182 261 201 q 278 219 278 251 q 278 292 256 316 q 235 341 199 341 q 164 341 114 314 z"},";":{"x_min":0,"x_max":276,"ha":276,"o":"m 140 625 q 190 625 220 592 q 249 558 249 500 q 249 442 219 409 q 188 375 137 375 q 87 375 59 410 q 31 445 31 506 q 31 561 60 593 q 90 625 140 625 z m 72 -140 l 65 -134 q 112 -93 118 -9 q 29 29 29 136 q 29 202 61 241 q 93 281 147 281 q 192 281 222 239 q 251 198 251 131 q 251 40 200 -40 q 149 -120 72 -140 z"},"J":{"x_min":0,"x_max":384,"ha":384,"o":"m 120 292 l 120 745 l 344 745 l 344 306 q 344 162 336 114 q 327 66 290 27 q 253 -11 198 -11 q 128 -11 75 38 q 21 87 3 173 q 20 167 47 167 q 83 167 97 175 q 111 182 116 206 q 120 230 120 292 z"},"V":{"x_min":0,"x_max":574,"ha":574,"o":"m 568 745 l 400 0 l 183 0 l 7 745 l 231 745 l 289 498 l 345 745 z"},"\"":{"x_min":0,"x_max":340,"ha":340,"o":"m 16 597 l 16 716 l 151 716 l 151 597 l 130 453 l 38 453 z m 189 597 l 189 716 l 324 716 l 324 597 l 303 453 l 211 453 z"},"7":{"x_min":0,"x_max":581,"ha":581,"o":"m 537 745 l 319 0 l 73 0 l 252 612 l 103 612 l 103 745 z"},"S":{"x_min":0,"x_max":496,"ha":496,"o":"m 63 293 q 86 239 122 207 q 158 174 189 174 q 206 174 217 186 q 227 197 227 216 q 227 233 219 246 q 211 259 195 269 l 141 303 q 82 339 55 387 q 29 435 29 505 q 29 758 272 758 q 381 758 475 707 l 419 472 q 394 525 360 554 q 327 583 293 583 q 275 583 265 573 q 254 562 254 545 q 254 522 268 509 q 282 495 334 465 q 388 435 418 407 q 448 380 465 339 q 483 297 483 240 q 483 -11 239 -11 q 113 -11 8 44 z"},"}":{"x_min":0,"x_max":263,"ha":263,"o":"m 50 -208 l 5 -208 l 5 -50 l 16 -50 q 50 -50 59 -27 q 68 -5 69 79 q 70 156 81 197 q 91 238 128 259 q 93 280 81 322 q 69 363 69 452 q 69 532 58 551 q 48 570 5 570 l 5 728 l 47 728 q 104 728 135 709 q 166 690 177 650 q 189 610 189 522 l 189 475 q 189 395 203 369 q 217 344 254 343 l 254 176 q 213 176 201 146 q 189 117 189 40 l 189 16 q 189 -76 178 -119 q 168 -163 142 -185 q 117 -208 50 -208 z"},"Z":{"x_min":0,"x_max":559,"ha":559,"o":"m 323 187 l 543 187 l 543 0 l 10 0 l 243 558 l 28 558 l 28 745 l 555 745 z"},"x":{"x_min":0,"x_max":581,"ha":581,"o":"m 417 290 l 574 0 l 338 0 l 281 116 l 226 0 l 6 0 l 163 299 l 6 587 l 243 587 l 298 474 l 352 587 l 574 587 z"},")":{"x_min":0,"x_max":382,"ha":382,"o":"m 4 -164 q 50 -107 88 -31 q 126 45 145 121 q 163 196 163 306 q 163 458 110 579 q 57 700 4 758 l 142 758 q 337 559 337 300 q 337 176 295 69 q 254 -39 142 -164 z"},"&":{"x_min":0,"x_max":638,"ha":638,"o":"m 156 380 q 105 458 105 541 q 105 636 155 697 q 205 758 283 758 q 345 758 389 708 q 432 659 432 587 q 432 479 362 407 l 411 335 q 435 374 451 427 l 580 427 l 546 358 q 527 317 509 286 q 491 256 476 236 l 634 0 l 405 0 l 354 76 q 317 35 270 12 q 223 -11 179 -11 q 112 -11 71 37 q 31 84 31 165 q 31 299 156 380 z m 314 472 q 358 493 358 539 q 358 562 348 577 q 338 592 323 592 q 306 592 294 578 q 282 563 282 542 q 282 506 314 472 z m 290 172 l 234 255 q 233 253 232 253 q 201 226 201 193 q 201 170 212 155 q 224 140 240 140 q 262 140 290 172 z"},"_":{"x_min":0,"x_max":340,"ha":340,"o":"m -6 -197 l -6 -88 l 347 -88 l 347 -197 z"},"v":{"x_min":0,"x_max":496,"ha":496,"o":"m 176 0 l -1 587 l 203 587 l 250 438 l 297 587 l 496 587 l 322 0 z"},"O":{"x_min":0,"x_max":581,"ha":581,"o":"m 299 758 q 399 758 475 646 q 550 534 550 379 q 550 205 476 97 q 402 -11 285 -11 q 186 -11 108 94 q 31 199 31 388 q 31 480 64 565 q 97 650 156 704 q 215 758 299 758 z m 290 471 q 269 471 254 449 q 239 427 239 393 q 239 359 253 337 q 268 315 290 315 q 312 315 327 337 q 342 358 342 393 q 342 427 327 449 q 312 471 290 471 z"},"(":{"x_min":0,"x_max":382,"ha":382,"o":"m 378 758 l 375 753 q 317 676 269 563 q 220 450 220 287 q 220 137 272 17 q 325 -104 378 -164 l 241 -164 q 156 -80 101 33 q 46 146 46 292 q 46 559 241 758 z"},"C":{"x_min":0,"x_max":531,"ha":531,"o":"m 428 347 l 522 65 q 493 37 436 13 q 380 -11 312 -11 q 192 -11 114 96 q 35 203 35 369 q 35 538 115 648 q 195 758 317 758 q 370 758 427 736 q 483 715 522 678 l 428 415 q 390 436 337 436 q 265 436 265 380 q 265 353 285 337 q 304 321 338 321 q 390 321 428 347 z"},"W":{"x_min":0,"x_max":835,"ha":835,"o":"m 419 295 l 344 0 l 179 0 l 0 745 l 220 745 l 277 502 l 340 745 l 494 745 l 560 502 l 616 745 l 834 745 l 664 0 l 499 0 z"},"A":{"x_min":0,"x_max":673,"ha":673,"o":"m 258 127 l 229 0 l 2 0 l 183 745 l 503 745 l 675 0 l 450 0 l 421 127 z m 298 302 l 381 302 l 340 484 z"},"f":{"x_min":0,"x_max":393,"ha":393,"o":"m 263 410 l 378 410 l 378 286 l 263 286 l 263 0 l 57 0 l 57 286 l 14 286 l 14 410 l 57 410 l 57 420 q 57 575 117 664 q 177 754 278 754 q 324 754 378 732 l 378 436 q 347 489 313 489 q 291 489 277 469 q 263 449 263 416 z"},"Q":{"x_min":0,"x_max":581,"ha":581,"o":"m 424 0 l 409 27 q 354 -12 294 -12 q 179 -12 105 99 q 31 210 31 388 q 31 486 67 572 q 103 659 162 708 q 221 758 299 758 q 399 758 475 646 q 550 534 550 379 q 550 253 510 157 l 593 0 z m 291 315 q 313 315 328 336 q 342 357 342 391 q 342 425 328 448 q 313 471 293 471 q 270 471 254 449 q 239 427 239 392 q 239 358 254 337 q 269 315 291 315 z"},"w":{"x_min":0,"x_max":673,"ha":673,"o":"m 170 0 l 0 587 l 210 587 l 249 462 l 285 587 l 381 587 l 418 462 l 459 587 l 671 587 l 494 0 l 380 0 l 333 161 l 285 0 z"},"-":{"x_min":0,"x_max":283,"ha":283,"o":"m 258 201 l 25 201 l 25 388 l 258 388 z"},"E":{"x_min":0,"x_max":489,"ha":489,"o":"m 274 187 l 470 187 l 470 0 l 50 0 l 50 745 l 470 745 l 470 558 l 274 558 l 274 466 l 411 466 l 411 279 l 274 279 z"},"s":{"x_min":0,"x_max":418,"ha":418,"o":"m 50 222 q 70 181 101 157 q 131 133 159 133 q 199 133 199 176 q 199 193 190 206 q 182 219 164 226 l 118 247 q 70 269 44 314 q 18 359 18 423 q 18 507 71 554 q 125 600 221 600 q 315 600 392 550 l 343 400 q 294 464 250 464 q 234 464 225 454 q 215 445 215 429 q 215 407 229 394 q 242 380 279 367 q 357 339 380 290 q 403 241 403 185 q 403 97 353 44 q 303 -8 219 -8 q 173 -8 114 10 q 55 27 4 57 z"},">":{"x_min":0,"x_max":453,"ha":453,"o":"m 36 470 l 36 641 l 417 412 l 417 268 l 36 36 l 36 207 l 269 339 z"},"l":{"x_min":0,"x_max":283,"ha":283,"o":"m 245 745 l 245 0 l 39 0 l 39 745 z"},"8":{"x_min":0,"x_max":581,"ha":581,"o":"m 154 375 q 42 413 42 553 q 42 622 73 670 q 104 719 154 738 q 204 758 280 758 q 424 758 481 704 q 538 651 538 553 q 538 412 425 375 q 486 355 514 308 q 542 261 542 201 q 542 85 486 37 q 429 -11 292 -11 q 160 -11 100 40 q 39 90 39 201 q 39 336 154 375 z m 290 480 q 309 480 321 497 q 333 515 333 542 q 333 568 321 587 q 308 606 292 606 q 272 606 260 588 q 247 571 247 544 q 247 517 260 499 q 272 480 290 480 z m 290 145 q 309 145 322 162 q 334 180 334 207 q 334 233 321 252 q 309 271 292 271 q 272 271 260 253 q 247 236 247 209 q 247 182 260 164 q 272 145 290 145 z"},"\\":{"x_min":0,"x_max":192,"ha":192,"o":"m 123 -11 l 0 728 l 70 728 l 191 -11 z"},"e":{"x_min":0,"x_max":475,"ha":475,"o":"m 451 256 l 241 256 q 252 210 279 185 q 305 160 339 160 q 408 160 451 224 l 451 121 q 380 -8 256 -8 q 150 -8 88 78 q 26 164 26 312 q 26 394 57 466 q 87 537 134 569 q 181 601 241 601 q 278 601 314 582 q 350 563 381 526 q 411 488 428 432 q 445 375 448 340 q 451 304 451 256 z m 229 359 l 325 359 q 324 402 310 427 q 296 452 277 452 q 256 452 243 428 q 229 403 229 365 z"},"b":{"x_min":0,"x_max":544,"ha":544,"o":"m 37 745 l 243 745 l 243 570 q 284 593 320 593 q 405 593 462 509 q 518 426 518 296 q 518 217 492 151 q 466 84 426 49 q 386 14 344 7 q 303 0 205 0 l 37 0 z m 243 349 l 243 214 l 247 214 q 288 214 304 230 q 320 247 320 289 q 320 323 308 342 q 296 362 276 362 q 260 362 243 349 z"},"%":{"x_min":0,"x_max":729,"ha":729,"o":"m 178 758 q 238 758 284 699 q 329 641 329 561 q 329 470 285 414 q 241 357 170 357 q 106 357 62 415 q 17 473 17 557 q 17 644 63 701 q 109 758 178 758 z m 172 527 q 186 527 195 538 q 204 549 204 567 q 204 584 196 597 q 187 609 175 609 q 161 609 151 597 q 142 585 142 567 q 142 550 151 539 q 160 527 172 527 z m 271 -11 l 196 -11 l 458 758 l 534 758 z m 562 394 q 622 394 667 335 q 713 276 713 197 q 713 106 669 51 q 625 -5 554 -5 q 490 -5 446 52 q 401 109 401 193 q 401 280 447 337 q 492 394 562 394 z m 556 164 q 570 164 579 175 q 588 185 588 203 q 588 221 579 233 q 571 245 559 245 q 544 245 535 234 q 526 222 526 204 q 526 187 535 176 q 543 164 556 164 z"},"m":{"x_min":0,"x_max":815,"ha":815,"o":"m 37 587 l 243 587 l 243 514 q 294 592 366 592 q 453 592 495 490 q 561 592 635 592 q 676 592 707 571 q 738 551 755 512 q 771 474 776 433 q 781 393 781 292 l 781 0 l 587 0 l 587 272 q 587 368 581 392 q 574 416 548 416 q 529 416 512 396 l 512 0 l 318 0 l 318 272 q 318 368 311 392 q 305 416 279 416 q 263 416 243 396 l 243 0 l 37 0 z"},"#":{"x_min":0,"x_max":453,"ha":453,"o":"m 21 390 l 21 525 l 116 525 l 142 698 l 234 698 l 208 525 l 296 525 l 322 698 l 414 698 l 388 525 l 433 525 l 433 390 l 371 390 l 357 286 l 433 286 l 433 151 l 339 151 l 313 -19 l 221 -19 l 247 151 l 157 151 l 132 -19 l 40 -19 l 65 151 l 21 151 l 21 286 l 84 286 l 98 390 z m 279 390 l 190 390 l 176 286 l 265 286 z"},",":{"x_min":0,"x_max":276,"ha":276,"o":"m 72 -140 l 65 -134 q 112 -93 118 -9 q 29 27 29 147 q 29 217 62 267 q 95 317 141 317 q 191 317 221 267 q 251 217 251 131 q 251 40 200 -40 q 149 -120 72 -140 z"},"n":{"x_min":0,"x_max":546,"ha":546,"o":"m 37 587 l 243 587 l 243 514 q 293 592 366 592 q 407 592 438 571 q 470 551 486 514 q 502 478 507 435 q 512 393 512 292 l 512 0 l 318 0 l 318 272 q 318 368 312 392 q 305 416 279 416 q 262 416 243 396 l 243 0 l 37 0 z"},"h":{"x_min":0,"x_max":546,"ha":546,"o":"m 37 745 l 243 745 l 243 511 q 290 592 370 592 q 404 592 437 569 q 470 547 488 504 q 506 461 509 421 q 512 381 512 285 l 512 0 l 318 0 l 318 279 q 318 365 311 389 q 304 414 279 414 q 260 414 243 391 l 243 0 l 37 0 z"},"z":{"x_min":0,"x_max":446,"ha":446,"o":"m 294 197 l 434 197 l 434 0 l 6 0 l 150 400 l 24 400 l 24 587 l 436 587 z"},"B":{"x_min":0,"x_max":595,"ha":595,"o":"m 406 0 l 50 0 l 50 745 l 321 745 q 416 745 460 728 q 504 711 533 661 q 563 611 563 540 q 563 479 548 444 q 532 410 497 377 q 539 342 558 304 q 577 267 577 203 q 577 111 530 55 q 483 0 406 0 z m 280 595 l 274 595 l 274 450 l 280 450 q 316 450 332 466 q 347 482 347 520 q 347 562 332 579 q 317 595 280 595 z m 278 324 l 274 324 l 274 164 l 281 164 q 320 164 336 181 q 352 198 352 240 q 352 287 336 306 q 320 324 278 324 z"},"K":{"x_min":0,"x_max":645,"ha":645,"o":"m 50 745 l 274 745 l 274 496 q 319 497 355 554 q 391 611 391 736 l 391 745 l 620 745 l 620 735 q 620 484 520 374 q 634 241 634 9 l 634 0 l 391 0 l 391 8 q 391 131 361 200 q 330 269 274 272 l 274 0 l 50 0 z"},"R":{"x_min":0,"x_max":609,"ha":609,"o":"m 50 0 l 50 745 l 274 745 q 391 745 430 737 q 470 729 499 702 q 528 674 546 627 q 564 579 564 526 q 564 414 507 357 q 589 220 605 0 l 372 0 l 372 7 q 372 138 347 207 q 322 276 277 276 l 274 276 l 274 0 z m 278 592 l 274 592 l 274 448 l 280 448 q 312 448 327 466 q 342 483 342 522 q 342 592 278 592 z"},"T":{"x_min":0,"x_max":475,"ha":475,"o":"m 349 0 l 125 0 l 125 444 l 12 444 l 12 745 l 462 745 l 462 444 l 349 444 z"},"P":{"x_min":0,"x_max":567,"ha":567,"o":"m 50 0 l 50 745 l 266 745 q 387 745 437 728 q 487 711 522 649 q 557 586 557 497 q 557 386 508 314 q 459 242 385 242 q 333 242 274 307 l 274 0 z m 278 584 l 274 584 l 274 422 l 277 422 l 289 421 q 317 421 333 443 q 349 465 349 506 q 349 550 334 567 q 318 584 278 584 z"},"|":{"x_min":0,"x_max":453,"ha":453,"o":"m 172 -134 l 172 697 l 281 697 l 281 -134 z"},"t":{"x_min":0,"x_max":382,"ha":382,"o":"m 274 587 l 361 587 l 361 423 l 274 423 l 274 344 q 274 284 280 259 q 286 233 313 233 q 341 233 361 275 l 361 42 q 313 -4 238 -4 q 203 -4 169 16 q 135 35 110 73 q 84 111 76 154 q 68 197 68 309 l 68 423 l -14 423 l 274 756 z"},"M":{"x_min":0,"x_max":722,"ha":722,"o":"m 274 0 l 50 0 l 50 745 l 267 745 l 358 590 l 449 745 l 668 745 l 668 0 l 444 0 l 444 373 l 358 229 l 274 373 z"},"g":{"x_min":0,"x_max":517,"ha":517,"o":"m 291 587 l 481 587 l 481 170 q 481 62 472 13 q 463 -36 438 -78 q 413 -121 371 -143 q 330 -164 262 -164 q 127 -164 30 -79 l 30 187 q 105 82 193 82 q 236 82 256 101 q 275 120 275 163 l 275 173 q 241 141 187 141 q 116 141 73 203 q 29 265 29 366 q 29 422 45 471 q 61 521 87 546 q 114 572 150 580 q 187 587 291 587 z m 275 295 l 275 422 l 271 422 q 203 422 203 348 q 203 318 215 300 q 227 282 247 282 q 265 282 275 295 z"},"j":{"x_min":0,"x_max":340,"ha":340,"o":"m 232 758 q 256 758 274 733 q 291 708 291 671 q 291 635 273 610 q 256 584 232 584 q 208 584 190 609 q 173 635 173 671 q 173 707 190 732 q 208 758 232 758 z m 85 225 l 85 587 q 142 554 191 554 q 246 554 291 587 l 291 219 q 291 106 281 47 q 271 -12 246 -60 q 221 -107 180 -134 q 139 -161 90 -161 q 42 -161 6 -135 l 6 88 q 24 79 39 79 q 68 79 77 105 q 85 132 85 225 z"},"i":{"x_min":0,"x_max":283,"ha":283,"o":"m 185 755 q 209 755 227 730 q 244 706 244 671 q 244 634 227 609 q 210 584 185 584 q 162 584 145 609 q 128 635 128 671 q 128 705 145 730 q 162 755 185 755 z m 39 0 l 39 587 q 82 554 141 554 q 205 554 245 587 l 245 0 z"},"y":{"x_min":0,"x_max":503,"ha":503,"o":"m 501 587 l 285 -164 l 61 -164 l 144 121 l 3 587 l 207 587 l 255 431 l 301 587 z"},"@":{"x_min":0,"x_max":732,"ha":732,"o":"m 468 30 l 369 30 l 375 79 q 341 21 281 21 q 218 21 176 84 q 134 148 134 238 q 134 364 214 450 q 294 536 439 536 q 520 536 573 520 l 527 130 q 564 130 602 208 q 640 287 640 388 q 640 521 584 601 q 527 680 436 680 q 286 680 189 559 q 92 437 92 248 q 92 91 165 -7 q 239 -104 342 -104 q 453 -104 520 -34 l 590 -34 q 496 -164 340 -164 q 213 -164 120 -48 q 26 68 26 246 q 26 390 80 504 q 134 618 229 681 q 324 744 434 744 q 553 744 630 648 q 706 551 706 392 q 706 238 639 134 q 572 30 468 30 z m 390 200 l 414 406 l 402 406 q 353 406 318 354 q 283 301 283 233 q 283 201 296 179 q 310 157 331 157 q 351 157 370 175 q 389 193 390 200 z"},".":{"x_min":0,"x_max":276,"ha":276,"o":"m 138 306 q 182 306 214 260 q 246 213 246 147 q 246 81 214 35 q 183 -11 138 -11 q 94 -11 62 35 q 30 81 30 147 q 30 213 62 260 q 93 306 138 306 z"},"p":{"x_min":0,"x_max":544,"ha":544,"o":"m 37 587 l 243 587 l 243 543 q 289 592 340 592 q 416 592 467 510 q 518 428 518 303 q 518 167 463 82 q 408 -4 324 -4 q 284 -4 243 21 l 243 -164 l 37 -164 z m 243 329 l 243 223 q 262 209 278 209 q 297 209 309 229 q 320 249 320 283 q 320 314 309 335 q 297 356 280 356 q 264 356 254 344 q 243 332 243 329 z"},"X":{"x_min":0,"x_max":658,"ha":658,"o":"m 6 0 l 204 377 l 7 745 l 252 745 l 325 608 l 397 745 l 640 745 l 448 379 l 652 0 l 407 0 l 327 148 l 250 0 z"},"*":{"x_min":0,"x_max":489,"ha":489,"o":"m 294 554 l 384 685 q 451 610 464 481 l 342 430 l 464 379 q 447 235 385 175 l 294 304 l 324 125 q 304 110 289 106 q 274 102 242 102 q 201 102 165 124 l 195 304 l 102 175 q 38 249 25 379 l 146 430 l 25 481 q 36 602 103 685 l 195 554 l 165 736 q 186 750 201 754 q 216 758 250 758 q 288 758 324 736 z"},"Y":{"x_min":0,"x_max":617,"ha":617,"o":"m 420 325 l 420 0 l 196 0 l 196 325 l 3 745 l 230 745 l 308 576 l 386 745 l 613 745 z"},"c":{"x_min":0,"x_max":444,"ha":444,"o":"m 406 272 l 406 17 q 349 -8 277 -8 q 159 -8 93 74 q 26 157 26 304 q 26 414 85 507 q 144 600 270 600 q 331 600 406 565 l 406 307 q 344 351 294 351 q 266 351 249 337 q 231 323 231 300 q 231 243 301 243 q 366 243 406 272 z"},"!":{"x_min":0,"x_max":276,"ha":276,"o":"m 112 214 q 105 222 66 338 q 27 454 27 558 q 27 645 60 701 q 92 758 141 758 q 187 758 218 701 q 249 645 249 559 q 249 462 215 355 q 181 247 163 214 q 188 201 203 171 q 217 141 217 104 q 217 56 194 22 q 170 -11 138 -11 q 105 -11 82 22 q 59 56 59 104 q 59 183 112 214 z"},"/":{"x_min":0,"x_max":192,"ha":192,"o":"m 0 -11 l 122 728 l 191 728 l 69 -11 z"},"[":{"x_min":0,"x_max":361,"ha":361,"o":"m 255 15 l 351 15 l 351 -149 l 49 -149 l 49 745 l 351 745 l 351 581 l 255 581 z"},"6":{"x_min":0,"x_max":581,"ha":581,"o":"m 230 745 l 541 745 l 541 732 q 442 686 373 577 q 459 558 507 485 q 554 411 554 302 q 554 164 480 76 q 406 -11 292 -11 q 171 -11 100 79 q 30 170 30 328 q 30 439 85 554 q 140 668 230 745 z m 287 264 q 307 264 320 282 q 332 301 332 331 q 332 361 319 380 q 307 399 287 399 q 269 399 256 379 q 242 359 242 331 q 242 302 255 283 q 268 264 287 264 z"},"r":{"x_min":0,"x_max":453,"ha":453,"o":"m 243 162 l 243 0 l 37 0 l 37 587 l 243 587 l 243 463 q 283 593 357 593 q 399 593 426 552 q 452 512 452 446 q 452 384 425 345 q 397 306 354 306 q 310 306 274 360 q 255 337 249 306 q 243 275 243 162 z"},"2":{"x_min":0,"x_max":581,"ha":581,"o":"m 392 133 l 488 133 l 488 0 l 82 0 l 188 205 q 245 315 245 382 q 245 416 231 438 q 216 459 194 459 q 145 459 84 326 l 87 664 q 135 714 175 736 q 215 758 272 758 q 325 758 376 718 q 427 678 451 607 q 475 536 475 450 q 475 397 467 348 q 458 299 432 226 q 406 153 396 139 z"},"{":{"x_min":0,"x_max":263,"ha":263,"o":"m 212 727 l 257 727 l 257 569 l 246 569 q 212 569 203 546 q 194 524 193 439 q 192 361 181 321 q 170 280 134 259 q 170 236 182 193 q 193 151 193 66 q 194 -14 204 -32 q 214 -51 257 -51 l 257 -209 l 215 -209 q 157 -209 127 -190 q 97 -172 85 -132 q 73 -91 73 -3 l 73 43 q 73 119 60 146 q 46 173 8 174 l 8 342 q 49 342 61 372 q 73 401 73 477 l 73 502 q 73 597 84 640 q 95 684 123 706 q 150 727 212 727 z"},"9":{"x_min":0,"x_max":581,"ha":581,"o":"m 351 0 l 40 0 l 40 13 q 137 56 209 168 q 123 186 76 259 q 29 333 29 443 q 29 581 103 669 q 176 757 290 757 q 411 757 481 666 q 551 575 551 417 q 551 309 497 194 q 443 79 351 0 z m 294 481 q 274 481 261 462 q 248 443 248 413 q 248 384 261 365 q 274 346 294 346 q 312 346 326 366 q 340 386 340 413 q 340 442 327 462 q 313 481 294 481 z"}," ":{"x_min":0,"x_max":333,"ha":333,"o":""},"I":{"x_min":0,"x_max":326,"ha":326,"o":"m 275 0 l 51 0 l 51 745 l 275 745 z"},"H":{"x_min":0,"x_max":663,"ha":663,"o":"m 274 277 l 274 0 l 50 0 l 50 745 l 274 745 l 274 472 l 389 472 l 389 745 l 613 745 l 613 0 l 389 0 l 389 277 z"},"4":{"x_min":0,"x_max":581,"ha":581,"o":"m 460 250 l 460 0 l 236 0 l 236 250 l 33 250 l 33 409 l 235 745 l 460 745 l 460 420 l 543 420 l 543 250 z m 128 420 l 236 420 l 236 601 z"},"~":{"x_min":0,"x_max":446,"ha":446,"o":"m 33 396 q 89 470 145 470 q 181 470 239 428 q 288 393 311 393 q 357 393 413 469 l 413 310 q 381 271 357 253 q 334 235 304 235 q 281 235 261 245 q 241 254 209 279 q 163 313 139 313 q 87 313 33 235 z"},"D":{"x_min":0,"x_max":602,"ha":602,"o":"m 50 0 l 50 745 l 263 745 q 353 745 400 726 q 448 707 491 656 q 535 604 557 531 q 580 457 580 367 q 580 292 560 224 q 541 156 505 106 q 469 55 428 33 q 386 11 350 5 q 313 0 228 0 z m 279 461 l 274 461 l 274 289 l 280 289 q 321 289 339 310 q 358 331 358 376 q 358 421 339 441 q 321 461 279 461 z"},"^":{"x_min":0,"x_max":446,"ha":446,"o":"m 41 331 l 177 728 l 269 728 l 405 331 l 288 331 l 224 571 l 159 331 z"},"0":{"x_min":0,"x_max":581,"ha":581,"o":"m 299 758 q 399 758 475 646 q 550 534 550 379 q 550 205 476 97 q 402 -11 285 -11 q 186 -11 108 94 q 31 199 31 388 q 31 480 64 565 q 97 650 156 704 q 215 758 299 758 z m 289 315 q 313 315 327 336 q 342 356 342 391 q 342 425 328 448 q 313 471 293 471 q 270 471 254 449 q 239 427 239 392 q 239 360 253 337 q 268 315 289 315 z"},"F":{"x_min":0,"x_max":489,"ha":489,"o":"m 274 0 l 50 0 l 50 745 l 471 745 l 471 558 l 274 558 l 274 423 l 417 423 l 417 236 l 274 236 z"},"`":{"x_min":0,"x_max":227,"ha":227,"o":"m 125 758 l 170 627 l 101 627 l -11 758 z"},"k":{"x_min":0,"x_max":531,"ha":531,"o":"m 37 745 l 243 745 l 243 393 q 314 435 314 583 l 314 587 l 523 587 l 523 582 q 523 497 497 434 q 472 372 440 343 q 479 305 501 227 q 524 149 524 58 q 524 41 523 0 l 320 0 l 320 11 q 320 136 302 200 q 284 264 243 289 l 243 0 l 37 0 z"},"u":{"x_min":0,"x_max":546,"ha":546,"o":"m 303 587 l 509 587 l 509 0 l 312 0 l 312 103 q 282 48 249 22 q 216 -4 172 -4 q 135 -4 104 18 q 72 40 57 76 q 42 111 38 151 q 34 191 34 308 l 34 587 l 228 587 l 228 298 q 228 241 233 216 q 239 191 267 191 q 282 191 292 204 q 303 217 303 222 z"},"]":{"x_min":0,"x_max":361,"ha":361,"o":"m 106 581 l 10 581 l 10 745 l 312 745 l 312 -149 l 10 -149 l 10 15 l 106 15 z"},"U":{"x_min":0,"x_max":588,"ha":588,"o":"m 322 745 l 546 745 l 546 468 q 546 347 541 293 q 536 239 516 179 q 496 120 462 78 q 428 36 384 12 q 340 -11 295 -11 q 237 -11 182 25 q 127 61 96 122 q 64 183 53 253 q 42 324 42 466 l 42 745 l 266 745 l 266 400 q 266 354 271 335 q 277 315 292 315 q 310 315 316 338 q 322 360 322 431 z"},"o":{"x_min":0,"x_max":489,"ha":489,"o":"m 249 600 q 342 600 403 514 q 463 428 463 292 q 463 154 402 73 q 342 -8 239 -8 q 145 -8 85 78 q 26 165 26 305 q 26 435 88 517 q 151 600 249 600 z m 244 234 q 263 234 276 252 q 289 271 289 299 q 289 330 277 349 q 266 368 246 368 q 226 368 213 350 q 200 331 200 301 q 200 273 213 253 q 226 234 244 234 z"},"N":{"x_min":0,"x_max":603,"ha":603,"o":"m 274 226 l 274 0 l 50 0 l 50 745 l 210 745 l 329 496 l 329 745 l 553 745 l 553 -5 l 383 -5 z"},"+":{"x_min":0,"x_max":453,"ha":453,"o":"m 36 260 l 36 418 l 173 418 l 173 620 l 280 620 l 280 418 l 417 418 l 417 260 l 280 260 l 280 59 l 173 59 l 173 260 z"},"G":{"x_min":0,"x_max":581,"ha":581,"o":"m 549 -1 l 546 -1 l 362 -9 q 254 -9 201 18 q 148 44 109 103 q 69 163 52 233 q 35 303 35 378 q 35 550 114 654 q 192 758 319 758 q 378 758 443 731 q 508 705 562 657 l 453 433 q 389 481 332 481 q 293 481 270 453 q 246 425 246 380 q 246 284 320 284 l 325 284 l 325 401 l 549 401 z"},"q":{"x_min":0,"x_max":546,"ha":546,"o":"m 507 587 l 507 -164 l 301 -164 l 301 9 q 268 -11 232 -11 q 142 -11 84 70 q 27 150 27 281 q 27 365 52 433 q 78 501 120 537 q 161 573 202 580 q 243 587 347 587 z m 301 366 l 295 366 q 254 366 239 350 q 224 334 224 289 q 224 259 237 238 q 250 218 268 218 q 286 218 301 234 z"},"d":{"x_min":0,"x_max":544,"ha":544,"o":"m 301 745 l 507 745 l 507 0 l 347 0 q 253 0 220 4 q 187 9 154 26 q 122 43 91 83 q 60 123 43 178 q 27 234 27 299 q 27 429 84 510 q 142 592 232 592 q 270 592 301 571 z m 301 214 l 301 346 q 287 361 268 361 q 250 361 237 341 q 224 321 224 291 q 224 247 239 230 q 254 214 295 214 z"},"1":{"x_min":0,"x_max":581,"ha":581,"o":"m 400 758 l 400 0 l 176 0 l 176 662 z"},"5":{"x_min":0,"x_max":581,"ha":581,"o":"m 142 745 l 526 745 l 526 612 l 347 612 l 329 511 q 415 501 459 437 q 504 373 504 265 q 504 145 443 67 q 382 -11 290 -11 q 200 -11 129 50 q 57 110 57 186 q 57 190 60 190 q 63 190 68 185 q 76 173 110 154 q 145 135 176 135 q 222 135 250 164 q 278 193 278 241 q 278 285 250 310 q 221 335 170 335 q 111 335 73 299 l 67 304 z"}}}
